<svg id="Layer_1" data-name="Layer 1" xmlns="http://www.w3.org/2000/svg" viewBox="0 0 454.98 512">
	<path d="M435.28,114.48,247.19,5.88c-10.83-6.25-28.57-6.25-39.4,0L19.7,114.48C8.86,120.73,0,136.09,0,148.6V365.78a43.14,43.14,0,0,0,19.7,34.13L207.79,508.5c10.83,6.26,28.57,6.26,39.4,0L435.28,399.91c12.25-8.15,19.22-20.41,19.7-34.13V148.6C454.54,135.43,446.66,122.16,435.28,114.48ZM78.16,257.06c-.89-148.09,197.46-213.48,283-75.88l-65.63,38c-39.62-65.54-138-42.1-141.53,37.89,1.06,73.73,97.75,108,141.53,37.9l65.64,38C285.77,463.79,82,416.71,78.16,257.06Z" transform="translate(0 -1.19)"/>
</svg>